<?xml version="1.0" encoding="UTF-8"?>
<svg xmlns="http://www.w3.org/2000/svg" width="1080" height="1080" viewBox="0 0 1080 1080">
  <path d="M 530.500 609.750 L 531.250 614.000 L 531.250 631.500 L 530.500 636.000 L 543.750 636.000 L 547.500 635.250 L 549.750 634.250 L 551.500 633.000 L 553.500 630.750 L 554.750 628.250 L 555.750 624.000 L 555.500 618.500 L 555.000 616.750 L 553.250 613.750 L 551.250 612.000 L 549.250 611.000 L 545.750 610.000 L 543.750 609.750 Z
M 536.750 612.250 L 542.500 612.250 L 544.000 612.500 L 547.250 614.000 L 549.000 616.000 L 549.750 617.750 L 550.250 620.500 L 550.250 625.250 L 549.250 629.750 L 547.500 632.250 L 546.500 632.750 L 543.750 633.250 L 537.750 633.250 L 536.500 632.750 Z
M 571.750 609.500 L 571.750 610.750 L 572.250 612.750 L 572.250 632.750 L 571.750 634.750 L 571.750 636.000 L 578.000 636.000 L 578.000 634.750 L 577.500 633.000 L 577.500 613.250 L 578.000 609.500 Z
M 490.000 609.500 L 490.500 613.250 L 490.500 627.500 L 491.000 630.250 L 492.250 633.000 L 494.000 634.750 L 496.000 635.750 L 499.500 636.500 L 505.500 636.250 L 509.250 634.750 L 510.750 633.250 L 511.750 631.250 L 512.500 628.250 L 512.750 625.250 L 512.750 613.000 L 513.250 609.500 L 508.000 609.750 L 508.500 613.000 L 508.750 618.250 L 508.250 630.000 L 508.000 631.000 L 506.750 633.000 L 504.250 633.750 L 500.750 633.750 L 498.250 632.750 L 497.000 631.500 L 496.000 629.000 L 495.750 627.250 L 495.750 614.500 L 496.250 609.500 Z
M 455.750 609.500 L 456.000 613.000 L 457.250 613.000 L 458.500 612.500 L 461.750 612.000 L 464.000 612.250 L 463.750 636.000 L 470.000 636.000 L 470.000 634.750 L 469.500 633.500 L 469.250 631.250 L 469.250 613.000 L 469.750 612.000 L 471.750 612.000 L 475.000 612.500 L 476.250 613.000 L 477.500 613.000 L 477.750 609.500 Z
M 644.000 609.250 L 641.750 609.750 L 640.000 610.500 L 637.500 612.750 L 636.750 615.000 L 637.000 618.250 L 638.000 620.250 L 639.250 621.500 L 648.750 626.250 L 650.250 628.000 L 650.500 631.000 L 650.000 632.250 L 648.500 633.250 L 645.250 633.500 L 642.500 632.500 L 637.750 629.250 L 636.250 632.250 L 636.250 634.000 L 639.000 635.500 L 641.500 636.250 L 647.000 636.500 L 650.750 635.500 L 653.500 633.500 L 654.750 631.250 L 655.000 630.000 L 654.750 626.250 L 654.250 625.000 L 652.250 622.750 L 643.000 618.250 L 641.250 616.500 L 641.000 614.000 L 641.500 612.750 L 642.250 612.250 L 645.500 612.000 L 649.250 613.500 L 652.500 616.000 L 653.750 613.500 L 654.250 611.000 L 649.500 609.500 Z
M 432.500 609.250 L 430.250 609.750 L 428.500 610.500 L 426.000 612.750 L 425.250 615.000 L 425.500 618.250 L 426.500 620.250 L 427.750 621.500 L 437.250 626.250 L 438.750 628.000 L 439.000 631.000 L 438.500 632.250 L 437.000 633.250 L 433.750 633.500 L 431.000 632.500 L 426.250 629.250 L 424.750 632.250 L 424.750 634.000 L 427.500 635.500 L 430.000 636.250 L 435.500 636.500 L 439.250 635.500 L 442.000 633.500 L 443.250 631.250 L 443.500 630.000 L 443.250 626.250 L 442.750 625.000 L 440.750 622.750 L 431.500 618.250 L 429.750 616.500 L 429.500 614.000 L 430.000 612.750 L 430.750 612.250 L 434.000 612.000 L 437.750 613.500 L 441.000 616.000 L 442.250 613.500 L 442.750 611.000 L 438.000 609.500 Z
M 606.500 609.000 L 604.000 609.500 L 601.500 610.500 L 599.000 612.250 L 597.500 613.750 L 595.750 616.250 L 594.750 618.750 L 594.250 621.250 L 594.250 625.000 L 595.000 628.250 L 596.250 630.750 L 597.750 632.750 L 599.500 634.250 L 602.250 635.750 L 604.000 636.250 L 609.250 636.500 L 611.750 636.000 L 614.250 635.000 L 616.750 633.250 L 618.250 631.750 L 619.500 630.000 L 621.000 626.500 L 621.500 624.000 L 621.500 620.250 L 620.250 615.750 L 618.250 612.750 L 616.250 611.000 L 613.750 609.750 L 612.000 609.250 Z
M 603.500 612.500 L 605.750 612.000 L 608.750 612.000 L 610.750 612.500 L 612.750 613.750 L 613.750 614.750 L 615.000 616.750 L 616.000 621.000 L 615.750 627.750 L 614.500 631.250 L 613.250 632.750 L 612.250 633.250 L 610.250 633.750 L 607.250 633.750 L 604.750 633.000 L 602.250 631.000 L 600.750 628.500 L 599.750 624.500 L 600.000 618.250 L 600.750 615.750 L 601.750 613.750 Z
M 419.000 468.750 L 417.000 470.000 L 415.750 470.250 L 412.000 474.500 L 410.250 478.000 L 409.750 481.000 L 409.750 483.500 L 410.250 487.000 L 411.500 490.000 L 411.250 490.750 L 410.000 490.750 L 409.500 490.250 L 405.000 489.750 L 402.000 490.250 L 399.750 491.250 L 399.250 491.750 L 398.250 492.000 L 396.500 494.000 L 396.250 495.750 L 395.000 497.250 L 394.500 499.250 L 395.250 499.750 L 396.750 498.500 L 397.750 498.750 L 398.750 498.500 L 399.500 497.750 L 400.250 499.000 L 401.500 499.250 L 402.750 497.500 L 403.500 497.000 L 404.000 497.500 L 404.750 497.500 L 405.500 496.750 L 406.000 497.250 L 406.250 498.250 L 406.750 498.250 L 410.250 496.000 L 411.500 496.500 L 411.250 497.750 L 413.250 497.750 L 414.500 497.250 L 416.250 498.000 L 416.500 498.500 L 416.000 499.000 L 413.500 499.000 L 411.750 500.000 L 411.000 500.000 L 409.500 501.000 L 409.000 501.000 L 406.500 503.000 L 405.250 503.500 L 402.000 507.250 L 402.000 508.000 L 401.250 509.000 L 400.000 511.750 L 400.000 513.250 L 399.500 514.250 L 399.250 519.250 L 400.000 522.000 L 400.750 522.750 L 402.750 522.500 L 403.500 521.250 L 403.500 520.500 L 403.000 519.750 L 403.000 516.500 L 403.750 516.000 L 404.750 517.750 L 405.500 518.250 L 406.500 517.750 L 407.250 515.750 L 408.250 516.750 L 409.000 516.500 L 409.500 515.000 L 408.750 513.000 L 409.000 511.750 L 410.500 512.750 L 411.000 512.500 L 411.500 511.750 L 411.500 510.500 L 411.000 509.750 L 411.250 509.000 L 411.750 509.750 L 413.000 509.500 L 413.500 508.750 L 413.500 508.000 L 413.000 507.250 L 413.500 506.750 L 415.500 506.500 L 415.750 504.750 L 416.500 504.250 L 418.000 505.750 L 419.000 507.750 L 419.750 510.500 L 420.000 520.750 L 420.500 523.250 L 420.500 528.250 L 420.000 530.750 L 419.750 538.000 L 419.250 539.000 L 419.000 540.500 L 419.000 543.250 L 417.500 548.000 L 417.750 549.500 L 417.000 550.500 L 417.000 551.750 L 417.750 552.500 L 419.500 552.500 L 420.750 552.750 L 422.000 553.500 L 423.250 553.500 L 424.250 552.750 L 425.750 552.500 L 427.000 551.250 L 427.750 549.250 L 428.000 542.500 L 427.500 538.750 L 427.750 531.500 L 427.250 527.750 L 426.750 526.500 L 426.500 517.250 L 426.250 515.500 L 425.750 514.500 L 425.750 511.750 L 425.000 510.250 L 424.750 508.000 L 423.750 506.250 L 423.750 504.500 L 424.500 504.500 L 425.500 505.250 L 426.250 504.250 L 426.000 503.250 L 426.500 502.500 L 428.250 504.000 L 429.250 504.250 L 429.750 503.750 L 429.500 502.500 L 430.250 501.750 L 430.750 502.000 L 432.000 504.500 L 434.000 504.000 L 434.250 505.250 L 434.750 505.750 L 435.500 505.750 L 436.000 505.250 L 436.000 504.500 L 436.500 503.750 L 437.000 504.000 L 437.250 505.250 L 437.000 506.500 L 436.000 508.000 L 436.250 509.500 L 437.250 509.500 L 437.750 510.250 L 436.000 512.250 L 436.000 513.500 L 436.250 514.000 L 438.750 513.750 L 438.750 514.250 L 438.000 515.250 L 438.000 516.500 L 438.750 517.500 L 439.750 517.250 L 440.500 515.250 L 442.500 513.250 L 443.250 511.250 L 443.500 508.500 L 442.750 507.250 L 442.750 506.500 L 441.750 505.250 L 441.750 504.250 L 440.750 502.750 L 440.750 502.000 L 439.000 500.000 L 437.750 499.500 L 435.000 497.000 L 433.750 497.000 L 431.250 496.000 L 429.500 496.500 L 426.000 496.250 L 425.500 496.750 L 424.500 496.750 L 424.250 497.000 L 423.500 497.000 L 423.000 496.250 L 423.750 495.500 L 423.750 494.250 L 426.500 494.000 L 426.500 493.250 L 425.500 491.500 L 428.750 491.250 L 428.000 490.250 L 428.500 489.750 L 430.000 489.750 L 430.750 490.500 L 432.000 490.250 L 432.000 489.250 L 431.500 488.000 L 432.250 488.000 L 433.750 489.750 L 434.500 490.000 L 435.500 489.250 L 436.750 490.500 L 436.750 491.250 L 437.500 492.000 L 438.500 491.750 L 439.250 491.000 L 441.000 491.750 L 441.500 491.000 L 441.500 490.000 L 440.750 488.750 L 440.750 487.000 L 440.000 485.250 L 438.750 483.500 L 437.250 482.250 L 435.750 482.000 L 434.500 481.250 L 432.750 481.250 L 432.250 481.750 L 430.500 482.250 L 429.000 482.250 L 427.000 483.250 L 423.000 486.500 L 422.000 488.250 L 421.000 489.250 L 420.750 490.250 L 419.250 492.750 L 417.750 493.500 L 417.500 492.250 L 419.000 489.750 L 419.000 489.000 L 417.000 488.500 L 417.000 487.500 L 416.500 486.250 L 417.500 485.250 L 417.500 484.500 L 416.250 484.250 L 415.750 483.500 L 417.250 482.000 L 417.000 481.000 L 416.250 480.250 L 416.750 479.750 L 418.750 479.500 L 418.250 478.250 L 420.500 477.750 L 421.000 476.000 L 421.500 476.000 L 422.750 477.750 L 424.000 478.000 L 424.500 477.750 L 424.750 475.000 L 426.250 476.250 L 427.000 478.250 L 428.000 478.500 L 428.750 477.750 L 428.750 477.250 L 429.750 476.250 L 430.000 475.500 L 429.500 473.750 L 428.000 471.750 L 425.750 470.000 L 424.750 469.750 L 423.750 469.000 L 422.500 468.750 Z
M 410.750 505.750 L 410.750 506.750 L 410.000 507.250 L 410.000 505.750 Z
M 420.750 497.750 L 420.750 497.250 L 421.250 496.750 L 422.000 496.750 L 422.500 497.500 L 422.000 498.000 Z
M 410.500 493.500 L 408.750 494.750 L 408.000 494.500 L 409.000 493.250 Z
M 435.750 483.750 L 437.000 484.750 L 437.250 485.500 L 438.250 486.000 L 438.500 487.250 L 439.000 488.000 L 438.750 489.500 L 438.000 489.500 L 437.500 487.500 L 437.000 487.250 L 436.750 486.500 L 435.000 484.250 Z
M 418.750 475.250 L 419.250 474.750 L 420.250 474.750 L 420.750 475.250 L 420.750 476.250 L 419.250 476.000 Z
M 873.500 512.000 L 873.000 511.250 L 872.750 509.250 L 871.750 507.000 L 868.500 502.250 L 863.500 498.000 L 863.000 498.000 L 861.750 497.000 L 861.000 497.000 L 859.500 496.000 L 858.500 496.000 L 857.000 495.250 L 853.750 494.750 L 846.500 494.750 L 841.750 495.250 L 840.750 495.750 L 837.750 496.000 L 836.000 496.750 L 834.000 497.000 L 832.000 498.000 L 831.000 498.000 L 829.250 499.000 L 828.500 499.000 L 826.250 500.000 L 825.000 501.000 L 824.250 501.000 L 823.000 502.000 L 822.250 502.000 L 821.250 503.000 L 820.250 503.250 L 819.500 504.000 L 819.000 504.000 L 818.250 504.750 L 817.500 505.000 L 812.250 509.000 L 807.750 513.000 L 800.250 521.000 L 796.000 526.500 L 793.250 530.750 L 790.000 537.500 L 790.000 538.250 L 789.250 539.500 L 788.000 544.750 L 787.500 551.750 L 788.000 557.000 L 789.250 561.000 L 789.250 562.250 L 787.250 564.000 L 785.750 565.000 L 784.750 565.250 L 784.000 566.000 L 782.500 566.250 L 781.250 567.000 L 779.500 567.250 L 773.750 567.000 L 771.750 566.000 L 771.000 566.000 L 767.750 564.000 L 764.750 561.000 L 764.500 560.250 L 763.750 559.500 L 762.750 557.500 L 762.750 556.750 L 762.250 556.000 L 761.750 554.000 L 761.750 549.000 L 762.000 547.750 L 762.500 547.000 L 762.750 545.000 L 763.500 543.750 L 763.750 542.250 L 764.750 541.000 L 764.750 540.250 L 770.000 532.250 L 774.750 526.250 L 775.750 524.500 L 777.750 522.250 L 778.750 520.500 L 780.750 518.250 L 781.000 517.500 L 788.750 507.500 L 789.000 506.750 L 791.000 504.000 L 791.500 503.750 L 794.000 500.000 L 794.500 499.750 L 796.000 497.250 L 803.750 487.250 L 804.750 485.500 L 806.750 483.250 L 807.750 481.500 L 809.750 479.250 L 810.750 477.500 L 818.500 467.500 L 820.000 465.000 L 820.500 464.750 L 828.500 453.750 L 828.250 452.250 L 826.250 451.500 L 821.000 451.500 L 820.000 452.000 L 811.250 452.250 L 809.000 453.000 L 807.250 454.500 L 806.000 456.500 L 799.000 465.500 L 798.000 467.250 L 796.000 469.500 L 795.000 471.250 L 787.250 481.250 L 777.750 494.500 L 772.250 501.500 L 772.000 502.250 L 770.000 504.500 L 769.000 506.250 L 767.000 508.500 L 766.000 510.250 L 758.250 520.250 L 751.000 530.500 L 750.750 531.500 L 750.000 532.250 L 750.000 533.000 L 749.000 534.250 L 749.000 535.000 L 748.250 536.000 L 748.000 537.500 L 747.000 539.250 L 747.000 540.500 L 746.000 543.000 L 746.000 545.000 L 745.500 546.000 L 745.250 548.250 L 745.500 554.000 L 745.250 555.500 L 739.750 561.000 L 736.500 563.750 L 735.250 564.250 L 732.750 566.000 L 732.000 566.000 L 730.750 566.750 L 728.500 567.250 L 724.000 567.250 L 721.250 566.750 L 720.750 566.250 L 719.500 566.000 L 718.250 565.000 L 717.750 565.000 L 716.250 564.000 L 713.750 561.500 L 712.000 559.000 L 710.750 556.250 L 710.250 553.000 L 710.250 550.250 L 711.000 546.000 L 711.750 543.750 L 712.750 542.000 L 712.750 541.250 L 713.750 540.000 L 713.750 539.500 L 714.750 538.250 L 714.750 537.750 L 715.500 537.000 L 718.000 533.000 L 718.500 532.750 L 720.500 530.000 L 720.750 529.250 L 722.500 527.250 L 723.000 526.250 L 727.750 520.250 L 728.750 518.500 L 730.750 516.250 L 731.750 514.500 L 733.750 512.250 L 734.750 510.500 L 742.500 500.500 L 747.000 494.000 L 747.500 493.750 L 752.000 487.250 L 757.500 480.250 L 757.750 479.500 L 759.750 477.250 L 760.750 475.500 L 765.750 469.250 L 766.000 468.500 L 776.500 454.750 L 777.000 453.500 L 776.750 452.250 L 774.750 451.500 L 769.750 451.500 L 768.000 452.000 L 759.750 452.250 L 757.250 453.000 L 755.000 455.500 L 754.000 457.250 L 749.000 463.500 L 748.000 465.250 L 740.250 475.250 L 738.750 477.750 L 738.250 478.000 L 735.750 481.750 L 735.250 482.000 L 733.250 484.750 L 733.000 485.500 L 726.000 494.500 L 725.000 496.250 L 723.000 498.500 L 722.000 500.250 L 720.000 502.500 L 719.000 504.250 L 717.250 506.250 L 716.750 507.250 L 712.000 513.250 L 711.750 514.000 L 709.750 516.750 L 709.250 517.000 L 706.750 520.750 L 706.250 521.000 L 705.000 522.750 L 704.750 523.500 L 702.250 526.500 L 702.000 527.250 L 701.000 528.250 L 699.750 530.750 L 699.000 531.500 L 698.750 532.500 L 698.000 533.250 L 698.000 534.000 L 697.250 535.000 L 697.000 536.250 L 696.000 538.000 L 696.000 539.000 L 695.250 540.250 L 695.000 542.500 L 694.000 546.000 L 693.750 549.500 L 694.000 555.500 L 690.000 559.750 L 683.500 565.000 L 683.000 565.000 L 681.750 566.000 L 680.250 566.250 L 679.000 567.000 L 673.250 567.250 L 670.500 566.750 L 670.000 566.250 L 668.500 566.000 L 666.500 564.750 L 663.750 562.500 L 662.000 560.500 L 661.500 559.250 L 660.750 558.500 L 660.750 557.750 L 659.750 555.750 L 659.500 549.250 L 660.000 546.250 L 660.750 545.000 L 660.750 544.000 L 661.750 542.500 L 661.750 541.750 L 662.750 540.250 L 663.000 539.250 L 665.000 536.000 L 676.750 520.500 L 677.000 519.750 L 679.000 517.000 L 679.500 516.750 L 682.000 513.000 L 682.500 512.750 L 684.000 510.250 L 691.750 500.250 L 692.750 498.500 L 694.000 497.000 L 693.750 495.750 L 692.750 495.000 L 691.500 494.750 L 687.250 494.750 L 682.500 495.500 L 677.250 495.500 L 676.000 496.000 L 674.750 496.000 L 672.750 497.750 L 670.750 500.750 L 670.250 501.000 L 668.250 503.750 L 667.500 503.750 L 664.750 501.250 L 664.000 501.000 L 661.750 499.250 L 660.750 499.000 L 660.000 498.250 L 657.250 497.000 L 656.500 497.000 L 655.250 496.250 L 653.250 496.000 L 651.500 495.250 L 647.750 494.750 L 640.000 494.750 L 635.000 495.250 L 632.750 496.000 L 631.000 496.000 L 628.500 497.000 L 626.500 497.250 L 625.250 498.000 L 624.250 498.000 L 622.750 499.000 L 622.000 499.000 L 619.250 500.250 L 618.250 501.000 L 617.500 501.000 L 609.500 506.000 L 603.250 511.000 L 594.250 520.250 L 590.250 525.250 L 587.000 530.000 L 587.000 530.500 L 585.000 533.500 L 585.000 534.250 L 584.000 535.750 L 583.750 537.250 L 583.000 538.250 L 582.750 540.250 L 582.000 541.750 L 582.000 543.000 L 581.250 545.000 L 581.000 547.000 L 581.000 554.750 L 581.250 556.500 L 581.750 557.500 L 582.000 559.750 L 582.750 561.250 L 583.000 562.750 L 584.000 564.250 L 584.000 565.000 L 587.250 570.000 L 591.000 573.750 L 593.250 575.500 L 594.250 575.750 L 595.250 576.750 L 597.500 577.750 L 599.000 578.000 L 600.250 578.750 L 601.500 578.750 L 603.750 579.500 L 606.000 579.750 L 610.750 579.750 L 614.750 579.250 L 615.750 578.750 L 617.500 578.750 L 619.250 578.000 L 621.250 577.750 L 622.500 577.000 L 624.000 576.750 L 625.750 575.750 L 626.500 575.750 L 627.750 574.750 L 628.500 574.750 L 629.750 573.750 L 631.000 573.500 L 631.750 572.750 L 632.250 572.750 L 633.000 572.000 L 635.500 570.750 L 636.500 569.750 L 637.250 569.500 L 639.250 567.750 L 641.250 566.500 L 644.500 563.500 L 645.250 563.500 L 645.750 564.000 L 646.000 565.000 L 647.000 566.250 L 647.000 566.750 L 649.250 570.000 L 653.000 573.750 L 655.250 575.500 L 656.250 575.750 L 657.250 576.750 L 659.500 577.750 L 661.000 578.000 L 661.500 578.500 L 668.000 579.750 L 675.000 579.500 L 675.750 579.000 L 678.000 578.750 L 683.000 576.500 L 688.250 572.750 L 696.500 564.750 L 697.500 565.750 L 698.000 567.000 L 701.000 571.000 L 703.500 573.500 L 706.500 575.750 L 707.000 575.750 L 708.250 576.750 L 709.000 576.750 L 710.250 577.750 L 711.000 577.750 L 713.250 578.750 L 715.500 579.000 L 716.500 579.500 L 719.000 579.750 L 726.000 579.500 L 728.000 578.750 L 729.250 578.750 L 731.000 577.750 L 731.750 577.750 L 733.000 576.750 L 733.750 576.750 L 735.750 575.500 L 737.750 573.750 L 739.750 572.500 L 747.750 564.750 L 748.250 564.750 L 748.750 565.250 L 749.000 566.250 L 752.000 570.500 L 756.500 574.750 L 761.750 577.750 L 763.250 578.000 L 764.500 578.750 L 767.000 579.000 L 767.750 579.500 L 774.750 579.750 L 777.000 579.500 L 781.000 578.500 L 781.500 578.000 L 783.000 577.750 L 783.750 577.000 L 786.500 575.750 L 793.750 570.000 L 796.750 573.000 L 800.250 575.750 L 800.750 575.750 L 802.000 576.750 L 802.750 576.750 L 804.000 577.750 L 804.750 577.750 L 806.000 578.500 L 810.250 579.500 L 812.750 579.750 L 820.750 579.500 L 824.000 578.750 L 826.000 578.750 L 829.000 577.750 L 831.250 577.500 L 832.750 576.750 L 833.750 576.750 L 835.750 575.750 L 837.250 575.500 L 838.250 574.750 L 839.750 574.500 L 840.750 573.750 L 841.500 573.750 L 842.750 572.750 L 843.500 572.750 L 844.750 571.750 L 846.000 571.500 L 846.750 570.750 L 847.250 570.750 L 848.500 569.750 L 849.000 569.750 L 849.750 569.000 L 850.500 568.750 L 851.250 568.000 L 852.500 567.500 L 858.500 562.750 L 858.250 562.000 L 855.250 561.750 L 853.500 561.000 L 850.250 558.250 L 849.000 557.750 L 848.000 557.750 L 845.750 559.000 L 844.750 560.000 L 844.250 560.000 L 843.500 560.750 L 842.500 561.000 L 841.500 562.000 L 840.750 562.000 L 839.500 563.000 L 837.250 564.000 L 836.500 564.000 L 834.750 565.000 L 833.750 565.000 L 832.500 565.750 L 830.500 566.000 L 828.500 566.750 L 824.500 567.250 L 819.250 567.250 L 816.750 566.750 L 813.500 565.000 L 810.750 562.250 L 808.750 558.750 L 808.000 556.000 L 808.000 551.000 L 808.750 548.750 L 809.000 546.500 L 809.750 545.500 L 810.000 544.000 L 812.000 540.000 L 812.750 539.250 L 812.750 538.500 L 813.750 537.500 L 814.750 535.500 L 818.500 530.750 L 819.500 530.750 L 820.500 531.750 L 821.500 532.000 L 822.500 532.750 L 823.250 532.750 L 824.250 533.500 L 827.000 534.750 L 828.000 534.750 L 829.250 535.500 L 832.250 536.000 L 834.000 536.750 L 839.250 537.250 L 846.500 537.000 L 850.500 536.500 L 853.750 535.750 L 856.000 534.750 L 857.000 534.750 L 858.750 533.750 L 859.500 533.750 L 860.750 532.750 L 861.500 532.750 L 862.250 532.000 L 863.500 531.500 L 867.250 528.500 L 869.500 526.000 L 871.750 522.750 L 871.750 522.250 L 872.750 520.750 L 872.750 519.750 L 873.500 518.000 Z
M 861.500 512.000 L 861.500 513.750 L 861.000 516.250 L 860.000 517.500 L 860.000 518.250 L 856.000 523.250 L 853.750 525.000 L 853.250 525.000 L 852.250 526.000 L 851.250 526.000 L 850.250 526.750 L 847.750 527.000 L 846.000 527.500 L 842.000 527.500 L 838.750 527.000 L 837.250 526.250 L 835.750 526.000 L 833.250 525.000 L 831.750 524.000 L 830.750 523.750 L 830.000 523.000 L 829.000 522.750 L 827.500 521.500 L 827.500 520.750 L 831.500 516.750 L 834.250 514.500 L 841.000 509.750 L 842.000 509.500 L 845.000 507.750 L 846.000 507.750 L 847.250 507.000 L 849.250 506.750 L 850.250 506.250 L 855.250 506.000 L 857.750 506.750 L 858.500 507.250 L 860.500 509.250 Z
M 660.000 508.000 L 662.250 510.250 L 662.750 511.500 L 652.250 525.250 L 649.000 530.000 L 649.000 530.500 L 647.000 533.500 L 647.000 534.250 L 646.000 536.000 L 646.000 536.750 L 645.000 538.250 L 644.750 540.250 L 644.000 541.750 L 644.000 543.000 L 643.250 545.000 L 643.000 547.000 L 643.000 553.500 L 635.250 560.000 L 634.500 560.250 L 632.250 562.000 L 626.750 565.000 L 626.000 565.000 L 624.250 566.000 L 623.250 566.000 L 621.750 566.750 L 618.500 567.250 L 612.500 567.000 L 610.500 566.000 L 609.750 566.000 L 607.000 564.000 L 604.750 561.750 L 602.750 558.500 L 602.750 557.500 L 601.750 555.000 L 602.000 548.750 L 602.500 548.000 L 602.750 546.000 L 603.750 544.000 L 603.750 543.250 L 604.750 541.750 L 604.750 541.000 L 609.000 534.250 L 612.750 529.500 L 623.250 519.000 L 625.250 517.750 L 627.500 515.750 L 629.500 514.750 L 630.500 513.750 L 631.500 513.500 L 632.250 512.750 L 632.750 512.750 L 634.000 511.750 L 635.000 511.500 L 635.750 510.750 L 636.500 510.750 L 638.000 509.750 L 638.750 509.750 L 640.500 508.750 L 642.000 508.500 L 643.250 507.750 L 644.250 507.750 L 645.750 507.000 L 649.750 506.500 L 651.000 506.000 L 655.750 506.250 L 656.750 506.750 L 657.750 506.750 Z
M 472.000 579.750 L 498.500 579.750 L 515.000 565.750 L 532.250 549.750 L 557.500 524.500 L 576.000 504.750 L 591.000 490.000 L 600.250 481.750 L 605.750 477.500 L 607.250 476.000 L 608.000 475.750 L 613.000 471.750 L 613.750 471.500 L 619.000 467.750 L 619.500 467.750 L 620.500 466.750 L 621.250 466.750 L 622.250 465.750 L 624.750 464.750 L 626.000 463.750 L 626.750 463.750 L 628.000 462.750 L 628.750 462.750 L 630.500 461.750 L 631.250 461.750 L 633.000 460.750 L 634.000 460.750 L 636.000 459.750 L 637.250 459.750 L 640.000 458.750 L 642.000 458.750 L 643.250 458.250 L 647.750 457.750 L 656.750 457.750 L 658.750 458.000 L 660.750 458.750 L 662.000 458.750 L 663.250 459.500 L 664.750 459.750 L 666.000 460.750 L 666.500 460.750 L 667.250 461.500 L 668.000 461.750 L 670.750 464.500 L 671.500 465.750 L 672.750 466.250 L 673.750 465.750 L 681.250 458.000 L 682.000 457.750 L 684.250 456.000 L 685.250 455.750 L 688.250 453.500 L 689.750 452.000 L 691.000 449.750 L 690.750 447.750 L 690.000 447.000 L 687.750 446.000 L 686.250 445.750 L 685.000 445.000 L 684.000 445.000 L 682.500 444.250 L 680.250 444.000 L 677.000 443.000 L 674.750 443.000 L 672.750 442.500 L 669.750 442.250 L 662.750 442.250 L 658.250 442.500 L 655.750 443.000 L 653.000 443.000 L 649.000 444.000 L 646.250 444.250 L 644.500 445.000 L 642.250 445.250 L 641.500 445.750 L 639.750 446.000 L 638.500 446.750 L 636.750 447.000 L 635.500 447.750 L 634.000 448.000 L 632.500 449.000 L 631.000 449.250 L 627.750 451.000 L 627.000 451.000 L 625.750 452.000 L 625.000 452.000 L 623.750 453.000 L 623.000 453.000 L 621.750 454.000 L 620.750 454.250 L 620.250 454.750 L 619.250 455.000 L 618.500 455.750 L 617.500 456.000 L 616.500 457.000 L 616.000 457.000 L 614.750 458.000 L 614.250 458.000 L 613.500 458.750 L 612.250 459.250 L 610.500 460.750 L 609.250 461.250 L 607.500 462.750 L 606.750 463.000 L 604.250 465.000 L 602.500 466.000 L 591.000 475.250 L 583.750 481.750 L 572.000 493.250 L 554.750 511.750 L 532.750 534.000 L 522.250 544.000 L 513.000 552.000 L 512.500 552.750 L 511.750 552.500 L 511.750 552.000 L 514.750 547.750 L 514.750 547.250 L 515.500 546.500 L 516.000 545.250 L 518.500 541.750 L 519.750 539.250 L 520.500 538.500 L 520.750 537.500 L 522.750 534.750 L 522.750 534.250 L 523.750 533.000 L 523.750 532.500 L 524.500 531.750 L 524.750 530.750 L 525.500 530.000 L 526.750 527.750 L 526.750 527.250 L 528.750 524.250 L 529.000 523.250 L 529.750 522.500 L 529.750 521.750 L 530.500 521.000 L 531.750 518.750 L 531.750 518.000 L 532.750 516.750 L 532.750 516.000 L 533.750 514.750 L 533.750 514.000 L 534.750 512.750 L 534.750 512.000 L 535.750 510.750 L 535.750 510.000 L 536.750 508.750 L 536.750 508.000 L 537.750 506.500 L 537.750 505.750 L 538.500 504.750 L 539.000 503.000 L 539.750 502.000 L 539.750 501.250 L 540.750 499.750 L 540.750 499.000 L 541.500 497.750 L 541.750 496.250 L 542.500 495.250 L 542.750 493.750 L 544.500 489.750 L 544.750 487.750 L 545.500 486.500 L 545.750 484.500 L 546.750 482.000 L 546.750 480.500 L 547.500 478.500 L 548.750 469.000 L 548.500 462.000 L 547.750 458.000 L 546.750 456.000 L 546.750 455.250 L 545.500 452.750 L 543.750 450.250 L 540.750 447.250 L 540.000 447.000 L 537.250 445.000 L 536.000 444.750 L 534.750 444.000 L 533.750 444.000 L 532.500 443.250 L 525.750 442.250 L 519.750 442.250 L 510.750 443.000 L 508.500 443.750 L 506.000 444.000 L 503.750 445.000 L 502.750 445.000 L 501.500 445.750 L 500.000 446.000 L 498.750 447.000 L 498.000 447.000 L 496.750 448.000 L 496.250 448.000 L 492.000 451.000 L 487.750 455.250 L 484.000 460.500 L 484.000 461.000 L 483.000 462.250 L 483.000 463.000 L 482.000 464.250 L 480.000 470.000 L 480.000 471.750 L 479.500 473.250 L 479.500 477.500 L 480.000 479.000 L 480.000 480.500 L 480.250 481.500 L 480.750 482.000 L 481.000 483.500 L 484.000 488.000 L 486.500 490.500 L 487.250 490.750 L 489.500 492.500 L 490.500 492.750 L 492.000 493.750 L 493.000 493.750 L 493.750 494.250 L 495.750 494.750 L 501.000 494.500 L 502.750 493.750 L 503.750 493.750 L 506.000 492.500 L 508.750 490.000 L 510.000 488.000 L 510.000 487.250 L 509.500 486.750 L 506.500 486.750 L 503.500 486.000 L 499.750 484.000 L 497.750 482.000 L 495.750 479.000 L 495.750 478.000 L 495.000 476.250 L 494.750 474.750 L 495.000 469.500 L 495.750 467.500 L 495.750 466.250 L 496.750 464.500 L 496.750 463.750 L 497.500 462.750 L 497.750 461.750 L 498.500 461.000 L 500.000 458.250 L 501.750 456.250 L 505.250 453.000 L 506.500 452.500 L 507.250 451.750 L 508.000 451.750 L 508.750 451.000 L 510.750 450.500 L 511.250 450.000 L 517.750 449.000 L 521.750 449.250 L 522.750 449.750 L 524.000 449.750 L 524.750 450.500 L 525.750 450.750 L 527.750 452.500 L 529.000 454.250 L 530.000 456.750 L 530.500 460.500 L 530.000 468.000 L 529.250 470.250 L 528.750 473.750 L 528.000 475.250 L 528.000 476.500 L 527.250 477.750 L 527.000 479.500 L 526.250 480.750 L 526.000 482.500 L 525.000 484.250 L 524.750 485.750 L 524.000 487.000 L 524.000 487.750 L 523.000 489.250 L 522.750 490.750 L 522.250 491.250 L 522.000 492.500 L 521.000 494.000 L 521.000 494.750 L 520.000 496.250 L 520.000 497.000 L 519.000 498.250 L 519.000 499.000 L 518.000 500.500 L 518.000 501.250 L 517.000 502.500 L 517.000 503.250 L 516.000 504.500 L 516.000 505.250 L 515.000 506.500 L 515.000 507.250 L 514.000 508.500 L 514.000 509.250 L 513.000 510.500 L 513.000 511.250 L 512.000 512.500 L 512.000 513.250 L 511.250 514.000 L 510.000 516.250 L 509.750 517.250 L 508.000 520.000 L 508.000 520.500 L 507.000 521.750 L 506.750 522.750 L 506.000 523.500 L 506.000 524.250 L 505.250 525.000 L 503.500 528.500 L 502.250 530.250 L 502.000 531.250 L 501.250 532.000 L 499.750 535.000 L 499.000 535.750 L 498.750 536.750 L 498.000 537.500 L 498.000 538.000 L 497.250 538.750 L 495.750 541.750 L 495.000 542.500 L 495.000 543.000 L 494.250 543.750 L 493.000 546.250 L 491.000 549.500 L 490.250 550.250 L 490.000 551.250 L 487.000 555.500 L 487.000 556.000 L 485.250 558.250 L 485.000 559.250 L 484.000 560.250 L 484.000 560.750 L 481.000 565.000 L 481.000 565.500 L 480.000 566.500 L 477.750 570.500 L 476.000 572.750 L 476.000 573.250 L 475.000 574.250 L 474.000 576.250 L 472.000 578.750 Z
M 212.000 458.250 L 212.000 458.750 L 210.000 461.500 L 210.000 462.250 L 209.000 463.500 L 208.750 464.750 L 208.000 465.750 L 207.750 467.250 L 207.000 468.500 L 207.000 469.750 L 206.250 472.000 L 206.250 479.000 L 206.750 479.750 L 207.000 481.750 L 208.000 483.500 L 208.000 484.250 L 208.750 485.000 L 210.000 487.250 L 214.750 491.750 L 215.250 491.750 L 216.500 492.750 L 217.250 492.750 L 218.750 493.750 L 221.000 494.500 L 226.000 494.750 L 227.750 494.500 L 228.500 494.000 L 230.500 493.750 L 231.750 492.750 L 232.750 492.500 L 233.000 492.000 L 234.750 490.750 L 236.750 488.000 L 236.750 487.250 L 236.250 486.750 L 233.000 486.750 L 231.000 486.000 L 230.000 486.000 L 228.500 485.000 L 227.500 484.750 L 225.250 483.000 L 222.750 479.750 L 222.500 478.250 L 221.750 476.750 L 221.500 471.000 L 221.750 468.750 L 222.750 466.250 L 222.750 465.250 L 223.750 463.750 L 223.750 463.000 L 225.500 460.500 L 226.000 459.250 L 230.500 454.750 L 231.250 454.500 L 233.500 452.750 L 234.250 452.750 L 235.500 451.750 L 237.000 451.500 L 238.250 450.750 L 239.250 450.750 L 241.750 449.750 L 244.000 449.750 L 245.750 449.250 L 248.750 449.000 L 258.500 449.250 L 266.750 450.000 L 268.750 450.750 L 271.000 450.750 L 274.000 451.500 L 275.000 452.500 L 273.000 454.250 L 270.500 457.250 L 268.000 461.000 L 268.000 461.500 L 267.000 462.750 L 267.000 463.500 L 266.000 464.750 L 266.000 465.750 L 265.250 466.750 L 264.000 471.750 L 263.750 475.000 L 264.000 479.500 L 263.500 480.000 L 261.750 480.750 L 260.250 481.000 L 256.750 482.750 L 255.500 483.000 L 254.250 484.000 L 253.500 484.000 L 252.250 485.000 L 251.500 485.000 L 250.250 486.000 L 249.750 486.000 L 249.000 486.750 L 246.500 488.000 L 245.500 489.000 L 242.250 491.000 L 235.250 497.000 L 230.000 502.500 L 223.250 511.250 L 222.750 512.500 L 221.250 514.250 L 221.000 515.250 L 219.500 517.250 L 218.750 519.000 L 218.000 519.750 L 218.000 520.500 L 217.000 521.750 L 217.000 522.500 L 215.000 526.750 L 213.000 533.750 L 213.000 536.000 L 212.500 537.750 L 212.500 545.750 L 213.000 549.500 L 213.750 551.250 L 214.000 553.250 L 215.000 555.000 L 215.000 556.000 L 216.000 557.250 L 216.000 558.000 L 217.000 559.250 L 218.000 561.500 L 219.000 562.500 L 220.000 564.250 L 225.000 569.500 L 229.250 572.750 L 229.750 572.750 L 230.500 573.500 L 232.000 574.000 L 232.750 574.750 L 233.500 574.750 L 234.750 575.750 L 235.500 575.750 L 237.000 576.750 L 238.000 576.750 L 239.250 577.500 L 241.000 577.750 L 242.500 578.500 L 251.000 579.750 L 259.000 579.500 L 260.000 579.000 L 263.250 578.750 L 265.750 577.750 L 266.750 577.750 L 268.750 576.750 L 269.750 576.750 L 271.250 575.750 L 272.500 575.500 L 273.000 575.000 L 274.250 574.750 L 275.500 573.750 L 276.500 573.500 L 277.250 572.750 L 277.750 572.750 L 279.000 571.750 L 279.500 571.750 L 280.500 570.750 L 281.000 570.750 L 281.750 570.000 L 282.500 569.750 L 283.500 568.750 L 284.250 568.500 L 286.500 566.750 L 289.500 564.000 L 290.250 563.750 L 291.000 564.500 L 291.000 565.250 L 291.750 566.000 L 292.250 567.250 L 294.000 569.750 L 296.750 572.750 L 300.500 575.750 L 301.500 576.000 L 302.250 576.750 L 303.000 576.750 L 304.250 577.750 L 305.250 577.750 L 307.250 578.750 L 308.500 578.750 L 310.750 579.500 L 313.000 579.750 L 318.000 579.750 L 327.500 578.500 L 328.250 578.000 L 330.500 577.750 L 333.000 576.750 L 334.000 576.750 L 335.250 576.000 L 339.500 574.750 L 341.000 573.750 L 341.750 573.750 L 343.000 572.750 L 343.750 572.750 L 344.750 572.000 L 345.750 571.750 L 347.000 570.750 L 347.500 570.750 L 348.750 569.750 L 349.250 569.750 L 352.000 567.750 L 352.500 567.750 L 358.750 562.750 L 358.500 562.000 L 356.500 562.000 L 353.500 560.750 L 352.750 560.000 L 352.000 559.750 L 350.250 558.000 L 348.250 557.750 L 347.000 558.250 L 342.000 561.750 L 340.750 562.000 L 339.500 563.000 L 335.750 564.250 L 335.250 564.750 L 333.500 565.000 L 332.250 565.750 L 330.000 566.000 L 328.000 566.750 L 323.500 567.250 L 318.000 567.250 L 316.250 567.000 L 315.000 566.250 L 313.500 566.000 L 311.500 564.750 L 307.750 561.500 L 306.750 560.250 L 306.750 559.750 L 305.750 558.500 L 304.750 556.000 L 304.250 551.000 L 304.500 550.750 L 304.750 547.250 L 305.750 544.000 L 306.500 542.750 L 306.750 541.500 L 307.750 540.250 L 307.750 539.500 L 308.500 538.750 L 309.750 536.250 L 310.750 535.250 L 311.000 534.500 L 313.500 531.500 L 318.000 525.000 L 318.500 524.750 L 321.000 521.000 L 321.500 520.750 L 322.750 519.000 L 323.000 518.250 L 330.750 508.250 L 331.750 506.500 L 333.750 504.250 L 334.750 502.500 L 336.750 500.250 L 337.750 498.500 L 345.500 488.500 L 347.000 486.000 L 347.500 485.750 L 350.000 482.000 L 350.500 481.750 L 352.500 479.000 L 352.750 478.250 L 360.500 468.250 L 360.750 467.500 L 362.750 465.250 L 363.750 463.500 L 365.750 461.250 L 366.750 459.500 L 370.750 454.500 L 371.250 453.250 L 370.750 452.250 L 369.000 451.500 L 363.750 451.500 L 362.000 452.000 L 354.000 452.250 L 351.500 453.000 L 350.000 454.250 L 338.750 469.750 L 338.250 470.000 L 337.750 471.000 L 335.500 473.750 L 333.750 476.500 L 328.250 483.500 L 328.000 484.250 L 326.000 486.500 L 325.000 488.250 L 323.000 490.500 L 322.000 492.250 L 320.250 494.250 L 309.750 508.750 L 309.250 509.000 L 308.750 510.000 L 306.500 512.750 L 304.750 515.500 L 300.000 521.500 L 299.000 523.250 L 297.000 525.500 L 293.750 530.750 L 293.000 531.500 L 293.000 532.250 L 292.000 533.500 L 291.750 534.750 L 291.000 535.750 L 291.000 536.500 L 290.000 538.250 L 290.000 539.250 L 289.000 541.500 L 289.000 542.750 L 288.000 546.750 L 288.000 553.750 L 287.750 554.250 L 282.250 559.000 L 281.500 559.250 L 279.500 561.000 L 277.000 562.250 L 276.250 563.000 L 275.750 563.000 L 275.000 563.750 L 273.750 564.000 L 273.000 564.750 L 271.000 565.250 L 269.750 566.000 L 268.750 566.000 L 267.250 566.750 L 264.250 567.250 L 254.500 567.000 L 251.000 566.000 L 249.750 566.000 L 248.250 565.250 L 246.000 564.750 L 243.750 563.750 L 243.000 563.000 L 242.000 562.750 L 239.250 560.750 L 236.750 558.250 L 234.750 555.500 L 234.750 555.000 L 233.750 553.500 L 233.750 552.750 L 232.750 550.750 L 232.250 547.750 L 232.250 541.250 L 232.750 540.000 L 232.750 537.750 L 233.500 536.000 L 233.750 533.750 L 234.500 532.500 L 234.750 530.750 L 235.750 529.000 L 235.750 528.250 L 237.000 525.500 L 237.750 524.500 L 237.750 523.750 L 238.750 522.500 L 238.750 521.750 L 239.750 520.500 L 239.750 519.750 L 240.500 519.000 L 241.250 517.250 L 242.750 515.250 L 242.750 514.750 L 243.500 514.000 L 243.750 513.250 L 247.750 507.750 L 251.750 503.250 L 256.500 498.750 L 261.500 495.000 L 262.250 494.750 L 263.250 493.750 L 263.750 493.750 L 265.000 492.750 L 266.000 492.500 L 266.750 491.750 L 268.000 491.500 L 268.750 490.750 L 269.500 490.750 L 270.500 490.250 L 272.000 491.500 L 274.000 492.750 L 274.750 492.750 L 276.000 493.750 L 282.750 495.750 L 284.750 495.750 L 286.250 496.250 L 290.250 496.500 L 296.000 496.250 L 300.250 495.500 L 301.500 494.750 L 302.250 494.750 L 303.000 494.000 L 303.750 493.750 L 305.750 491.750 L 305.750 491.250 L 306.750 489.750 L 307.250 487.250 L 306.750 483.750 L 305.500 481.750 L 302.250 479.000 L 297.250 477.000 L 295.750 477.000 L 292.750 476.250 L 282.750 476.250 L 278.500 476.750 L 278.000 476.250 L 278.250 474.000 L 278.750 473.000 L 278.750 471.750 L 279.750 469.250 L 281.750 465.500 L 284.500 461.750 L 287.250 459.000 L 290.500 457.000 L 291.250 457.750 L 292.000 457.750 L 292.750 458.500 L 294.000 458.750 L 294.750 459.500 L 296.000 459.750 L 296.750 460.500 L 297.750 460.750 L 301.250 462.750 L 302.000 462.750 L 303.250 463.750 L 304.250 463.750 L 306.000 464.750 L 310.000 465.500 L 312.750 465.500 L 316.750 464.750 L 319.500 463.250 L 320.500 462.250 L 321.750 460.000 L 322.000 457.750 L 321.500 453.500 L 320.750 452.500 L 320.750 451.750 L 318.750 448.750 L 317.000 447.000 L 315.250 446.000 L 314.250 445.000 L 312.000 444.000 L 310.500 443.750 L 309.250 443.000 L 307.750 443.000 L 306.500 442.500 L 299.750 442.250 L 295.000 443.000 L 293.000 443.000 L 291.250 443.750 L 288.250 444.250 L 287.750 444.750 L 286.250 445.000 L 284.750 446.000 L 284.000 446.000 L 282.750 447.000 L 282.000 447.000 L 280.500 448.000 L 279.250 447.250 L 277.500 447.000 L 275.500 446.000 L 274.250 446.000 L 272.750 445.250 L 269.500 444.750 L 267.750 444.000 L 265.750 444.000 L 263.750 443.250 L 253.000 442.250 L 246.000 442.250 L 236.000 443.250 L 234.000 444.000 L 231.750 444.250 L 230.250 445.000 L 229.250 445.000 L 225.750 446.750 L 224.500 447.000 L 223.500 448.000 L 221.250 449.000 L 217.750 451.750 L 215.000 454.500 Z
M 283.000 487.000 L 283.250 486.000 L 284.750 485.750 L 286.750 485.750 L 291.250 485.000 L 299.000 485.000 L 300.750 485.750 L 301.750 486.750 L 302.000 488.250 L 301.250 489.500 L 299.250 491.000 L 292.750 491.000 L 291.250 490.750 L 289.500 490.000 L 287.500 489.750 L 287.000 489.250 L 285.750 489.000 L 285.000 488.250 L 284.000 488.000 Z
M 296.500 454.250 L 297.000 453.750 L 298.750 453.750 L 302.750 452.750 L 310.750 452.750 L 314.000 454.000 L 316.000 456.000 L 316.250 458.000 L 316.000 459.000 L 315.000 460.000 L 313.250 461.000 L 310.000 461.000 L 306.750 460.000 L 305.000 459.000 L 304.250 459.000 L 303.000 458.000 L 302.250 458.000 L 301.000 457.000 L 300.250 457.000 L 299.000 456.000 L 297.500 455.500 L 296.750 455.000 Z" fill="#000000" fill-rule="evenodd"/>
</svg>
